<svg width="95" height="103" viewBox="0 0 95 103" fill="none" xmlns="http://www.w3.org/2000/svg">
<path d="M54.6666 3.6C51.3333 7.86667 51.7333 15.4667 55.3333 18.1333C58.2666 20.4 57.7333 22.5333 53.8666 23.4667C49.3333 24.6667 47.4666 22.6667 49.3333 18.5333C51.2 14.4 49.3333 8.93333 44.9333 6C39.6 2.53333 25.4666 7.2 25.3333 12.2667C25.3333 12.8 27.6 14.8 30.4 16.5333C38.7999 21.7333 40 23.6 40 30.5333C40 34 39.3333 37.4667 38.5333 38.2667C37.4666 39.3333 37.4666 40.5333 38.5333 42.2667C39.6 44.5333 39.2 45.4667 36 47.8667C33.6 49.6 32 52 32 53.7333C32 55.4667 31.3333 57.4667 30.4 58.4C28.1333 60.6667 30.1333 62.1333 32.6666 60C33.7333 59.0667 34.6666 57.0667 34.6666 55.3333C34.6666 52.2667 43.7333 44 47.0666 44C49.8666 44 52.1333 40.8 51.7333 37.2C51.4666 35.3333 52.1333 34 53.3333 33.7333C55.0666 33.3333 55.3333 35.4667 55.2 47.6C55.0666 59.3333 54.5333 62.9333 52.4 67.3333C48.9333 74 43.4666 77.2 37.6 76.4C35.0666 76 31.7333 76.4 30 77.3333C27.7333 78.5333 26.4 78.5333 24 77.3333L21.0666 75.7333L24.5333 72.1333C27.7333 68.8 29.0666 65.3333 27.2 65.3333C26.1333 65.3333 17.4666 74.6667 13.0666 80.6667C10.9333 83.6 7.86662 86.2667 6.26662 86.6667C4.26662 87.2 2.79995 89.2 1.46662 93.0667C-2.40005 105.333 2.93328 105.733 14.6666 94C19.3333 89.2 23.7333 85.3333 24.4 85.3333C25.0666 85.3333 27.2 86.6667 29.3333 88.2667L32.9333 91.3333L28.9333 94.8C22.9333 99.8667 24.6666 102.667 33.7333 102.667C41.3333 102.667 44 101.067 44 96.6667C44 92.9333 49.2 77.2 51.3333 74.6667C52.2666 73.6 53.8666 70.9333 55.0666 68.6667L57.0666 64.6667L58 70.9333C58.9333 77.3333 61.7333 82.6667 63.3333 81.0667C63.8666 80.6667 63.6 79.0667 62.8 77.4667C62 76 60.9333 71.2 60.5333 66.9333C59.7333 60 60 58.9333 62.1333 58.1333C63.6 57.7333 65.3333 57.0667 66.1333 56.6667C68.1333 55.6 69.8666 64.6667 68.2666 67.4667C67.4666 69.0667 68.4 72.8 71.4666 80.2667C74 86.1333 76 91.4667 76 92.1333C76 95.0667 72 92.9333 69.3333 88.6667C67.7333 86.1333 65.8666 84.4 65.2 84.8C64.4 85.2 64.8 86.9333 66 88.9333C68.1333 92.1333 68.1333 92.4 65.3333 95.3333C60.5333 100.533 62.5333 102.933 71.4666 102.4C81.6 101.867 82.6666 100 78.6666 90.1333C76.4 84.4 76 82.1333 77.2 80.9333C79.0666 79.0667 79.2 60 77.3333 60C76.6666 60 76 62.2667 76 64.9333L75.8666 70L73.3333 65.3333C71.8666 62.8 70.8 58.4 70.6666 55.6C70.6666 52.9333 70.4 50.6667 70 50.6667C69.7333 50.6667 67.4666 51.8667 65.0666 53.3333C59.0666 56.9333 58.4 56.8 58.9333 50.9333L59.3333 46H67.3333C75.2 46 75.3333 46 75.7333 50C76.4 55.2 78.6666 57.6 78.8 53.2C79.0666 47.6 78.5333 46.1333 75.4666 43.3333C70.4 38.9333 72.4 36.2667 81.4666 35.2C92.1333 34 95.3333 31.3333 94.1333 24.9333C93.3333 20.4 91.3333 17.6 89.8666 18.9333C89.6 19.3333 90 21.4667 90.8 23.8667C91.7333 26.6667 91.8666 28.6667 91.0666 29.4667C89.6 30.9333 73.3333 33.7333 72.2666 32.8C70.8 31.2 78.2666 26.8 82.4 26.6667C87.3333 26.6667 87.3333 26.6667 84.5333 17.4667C81.8666 8.4 82.5333 4.26667 85.7333 10.4C87.0666 12.8 88.6666 14.4 89.3333 14C91.2 12.8 88 5.46667 85.2 4.66666C82.4 3.73333 78.6666 6 78.6666 8.53333C78.6666 9.33334 76.2666 12.6667 73.3333 16L68 22L68.8 13.2C69.6 4.93333 69.3333 4.13333 66.5333 2.13333C62 -1.06667 57.8666 -0.533333 54.6666 3.6ZM64.5333 4.8C66.2666 6.53333 67.6 10.6667 66.2666 10.6667C66.1333 10.6667 64.2666 8.8 62.2666 6.66666C59.6 3.86667 59.0666 2.66666 60.4 2.66666C61.6 2.66666 63.4666 3.6 64.5333 4.8ZM61.2 9.86667C64.5333 13.4667 64 16 60 16C57.0666 16 54.1333 11.3333 55.2 8.53333C56.2666 5.86667 57.7333 6.26667 61.2 9.86667ZM40 8.53333C40 8.8 39.2 10.9333 38.1333 13.4667C36.4 17.4667 36.2666 17.6 35.3333 14.8C34.8 13.0667 35.0666 11.0667 36 10C37.4666 8.13333 40 7.33334 40 8.53333ZM32 11.3333C32 12.4 31.4666 13.3333 30.6666 13.3333C30 13.3333 29.3333 12.4 29.3333 11.3333C29.3333 10.2667 30 9.33334 30.6666 9.33334C31.4666 9.33334 32 10.2667 32 11.3333ZM46.6666 14.5333C46.6666 17.3333 45.8666 18.5333 43.8666 19.0667C40.1333 20 39.2 16.8 41.8666 12.6667C44.5333 8.53333 46.6666 9.46667 46.6666 14.5333ZM79.0666 18.5333C72.8 28 72.9333 28 62 29.3333C56.2666 30 50.1333 31.6 48.5333 32.6667C43.7333 35.8667 42.6666 35.0667 42.6666 28.6667C42.6666 22.1333 43.2 21.6 46.2666 24.6667C47.8666 26.4 50.2666 26.5333 58.5333 26C68.4 25.2 68.8 24.9333 74 19.3333C79.7333 13.2 82.9333 12.6667 79.0666 18.5333ZM64.4 20.6667C64.5333 21.3333 63.6 22.1333 62.4 22.4C60.9333 22.6667 60 22 60 20.6667C60 18.4 64 18.2667 64.4 20.6667ZM82.6666 22C82.6666 23.0667 81.7333 24 80.5333 24C78.6666 24 78.6666 23.6 80 22C80.9333 20.9333 81.8666 20 82.1333 20C82.4 20 82.6666 20.9333 82.6666 22ZM69.3333 34C70.6666 35.6 70.6666 36.8 69.6 39.3333C68.4 42 67.0666 42.6667 62.9333 42.6667C58 42.6667 57.7333 42.5333 58.2666 38.9333C58.6666 36.9333 59.0666 34.5333 59.3333 33.6C60.1333 31.3333 67.3333 31.6 69.3333 34ZM47.7333 38.9333C47.0666 41.0667 41.3333 42.1333 41.3333 40.1333C41.3333 39.0667 43.6 38 47.0666 37.4667C47.7333 37.4667 48 38.1333 47.7333 38.9333ZM76 75.6C76 79.7333 75.2 79.4667 72.6666 74.6667C70 69.6 70.1333 68.9333 73.3333 70.9333C74.8 71.8667 76 74 76 75.6ZM24 81.3333C23.8666 82.8 10.6666 92.1333 10.6666 90.6667C10.6666 89.8667 12.5333 86.5333 14.6666 83.2C18.2666 78 19.0666 77.6 21.3333 79.0667C22.7999 79.8667 24 80.9333 24 81.3333ZM33.6 83.4667C33.0666 88 32.9333 88 30.5333 85.8667C27.3333 82.9333 27.3333 82 31.0666 80.2667C32.6666 79.4667 34 78.8 34 78.8C34.1333 78.6667 33.8666 80.8 33.6 83.4667ZM45.3333 80.1333C45.3333 80.5333 44.4 83.6 43.2 87.0667C41.7333 91.6 40.4 93.3333 38.5333 93.3333C36.5333 93.3333 36 92.4 36 88.9333C36 81.2 37.0666 79.3333 41.4666 79.3333C43.6 79.3333 45.3333 79.7333 45.3333 80.1333ZM7.06662 93.6C6.26662 98.1333 4.53328 100.933 3.33328 99.8667C2.39995 98.9333 5.59995 89.3333 6.79995 89.3333C7.46662 89.3333 7.59995 91.3333 7.06662 93.6ZM40 98.6667C40 99.3333 37.6 100 34.6666 100C31.7333 100 29.3333 99.3333 29.3333 98.6667C29.3333 97.8667 31.7333 97.3333 34.6666 97.3333C37.6 97.3333 40 97.8667 40 98.6667ZM77.3333 98.6667C77.3333 99.3333 74.9333 100 72 100C69.0666 100 66.6666 99.3333 66.6666 98.6667C66.6666 97.8667 69.0666 97.3333 72 97.3333C74.9333 97.3333 77.3333 97.8667 77.3333 98.6667Z" fill="black"/>
</svg>
